<svg xmlns="http://www.w3.org/2000/svg" xmlns:xlink="http://www.w3.org/1999/xlink" width="997.83" height="257" viewBox="0 0 997.83 257">
  <defs>
    <clipPath id="clip-path">
      <rect id="Rectangle_2" data-name="Rectangle 2" width="997.832" height="257" fill="#a6b5fa"/>
    </clipPath>
    <clipPath id="clip-Chakra">
      <rect width="997.83" height="257"/>
    </clipPath>
  </defs>
  <g id="Chakra" clip-path="url(#clip-Chakra)">
    <g id="chakra-2" data-name="chakra" clip-path="url(#clip-path)">
      <path id="Path_1" data-name="Path 1" d="M388.5,115.3c17.612,0,25.466,11.424,28.084,21.658l24.752-9.044c-4.76-18.564-21.9-38.08-53.074-38.08-33.32,0-59.262,25.7-59.262,61.4,0,35.224,25.942,61.642,59.976,61.642,30.464,0,47.838-19.754,53.312-37.842l-24.276-8.806c-2.618,8.806-10.948,21.42-29.036,21.42-17.374,0-32.368-13.09-32.368-36.414S371.6,115.3,388.5,115.3Z" fill="#a6b5fa"/>
      <path id="Path_2" data-name="Path 2" d="M484.894,141.244c.476-14.756,8.806-26.18,24.038-26.18,17.374,0,23.8,11.424,23.8,25.7v68.544H560.34v-73.3c0-25.466-13.8-45.934-42.364-45.934-12.138,0-25.228,4.284-33.082,14.518V37H457.286V209.312h27.608Z" fill="#a6b5fa"/>
      <path id="Path_3" data-name="Path 3" d="M577.29,177.9c0,18.326,14.994,34.986,39.27,34.986,18.8,0,30.226-9.52,35.7-18.326,0,9.282.952,14.042,1.19,14.756h25.7a105.125,105.125,0,0,1-1.428-18.564v-57.6c0-23.086-13.566-43.316-49.266-43.316-28.56,0-46.648,17.85-48.79,37.842L604.9,133.39c1.19-11.662,9.282-20.944,23.8-20.944,15.232,0,21.9,7.854,21.9,17.612,0,4.046-1.9,7.378-8.568,8.33l-29.75,4.522C592.522,145.766,577.29,157.19,577.29,177.9ZM621.8,191.224c-10.948,0-16.9-7.14-16.9-14.994,0-9.52,6.9-14.28,15.47-15.708L650.594,156v5.236C650.594,183.846,637.266,191.224,621.8,191.224Z" fill="#a6b5fa"/>
      <path id="Path_4" data-name="Path 4" d="M810.108,93.406H773.456L728.95,140.292V37H701.58V209.312h27.37V176.944l14.28-14.994,34.034,47.362h33.8l-48.552-66.878Z" fill="#a6b5fa"/>
      <path id="Path_5" data-name="Path 5" d="M889.349,92.692a39.532,39.532,0,0,0-7.378-.714c-15.232,0-28.084,7.378-33.558,19.992V93.406H821.519V209.312h27.608V154.1c0-21.658,9.758-34.034,31.178-34.034a60.246,60.246,0,0,1,9.044.714Z" fill="#a6b5fa"/>
      <path id="Path_6" data-name="Path 6" d="M895.968,177.9c0,18.326,14.994,34.986,39.27,34.986,18.8,0,30.226-9.52,35.7-18.326,0,9.282.952,14.042,1.19,14.756h25.7a105.125,105.125,0,0,1-1.428-18.564v-57.6c0-23.086-13.566-43.316-49.266-43.316-28.56,0-46.648,17.85-48.79,37.842l25.228,5.712c1.19-11.662,9.282-20.944,23.8-20.944,15.232,0,21.9,7.854,21.9,17.612,0,4.046-1.9,7.378-8.568,8.33l-29.75,4.522C911.2,145.766,895.968,157.19,895.968,177.9Zm44.506,13.328c-10.948,0-16.9-7.14-16.9-14.994,0-9.52,6.9-14.28,15.47-15.708L969.272,156v5.236C969.272,183.846,955.944,191.224,940.474,191.224Z" fill="#a6b5fa"/>
      <rect id="Rectangle_1" data-name="Rectangle 1" width="257" height="257" rx="128.5" fill="#a6b5fa"/>
      <path id="Path_7" data-name="Path 7" d="M69.558,133.985,157.15,47a2,2,0,0,1,3.165,2.377l-32.6,59.752a2,2,0,0,0,1.756,2.958h56.339a2,2,0,0,1,1.365,3.462L88.446,207.687a2,2,0,0,1-2.984-2.636L132.2,140.578a2,2,0,0,0-1.619-3.174H70.968A2,2,0,0,1,69.558,133.985Z" fill="#fff"/>
    </g>
  </g>
</svg>
